Results
version=1
nRows=14
nColumns=24
inDegrees=yes
endheader
time	pelvis_tilt	pelvis_list	pelvis_rotation	pelvis_tx	pelvis_ty	pelvis_tz	hip_flexion_r	hip_adduction_r	hip_rotation_r	knee_angle_r	ankle_angle_r	subtalar_angle_r	mtp_angle_r	hip_flexion_l	hip_adduction_l	hip_rotation_l	knee_angle_l	ankle_angle_l	subtalar_angle_l	mtp_angle_l	lumbar_extension	lumbar_bending	lumbar_rotation
      1.25000000	     -0.12422883	     -7.56243782	     -4.35109750	      0.00525589	      1.05440284	      0.30922639	    -18.24851498	     11.98569152	      0.50624446	     -7.49986009	      1.29431919	     -7.52431465	      3.34964763	     23.60970659	     -4.71906840	     -9.40775987	      3.06951795	     12.96959830	      5.88425897	     -3.71587937	      2.43749744	     12.39485201	      4.79983157
      1.25416667	     -0.13953878	     -7.54268032	     -4.39445389	      0.01141734	      1.05414171	      0.30928530	    -18.32692543	     11.91416254	      0.53928247	     -7.95989735	      1.08325429	     -7.55261282	      3.36500602	     23.50312119	     -4.69012534	     -9.27720289	      2.91816827	     13.09795985	      5.92129287	     -3.69820378	      2.51037601	     12.32114385	      4.80983122
      1.25833333	     -0.15122652	     -7.47192272	     -4.37404133	      0.01781248	      1.05388309	      0.30929430	    -18.42096662	     11.80701666	      0.54874750	     -8.35735080	      0.47771228	     -7.64604206	      3.42456158	     23.38422562	     -4.58541751	     -9.09233290	      2.72550052	     13.44337108	      5.86741562	     -3.63868271	      2.57253804	     12.17942048	      4.81797321
      1.26250000	     -0.15362493	     -7.45321087	     -4.41330279	      0.02401365	      1.05368775	      0.30936924	    -18.47856720	     11.73594463	      0.57189109	     -8.88341901	      0.36397885	     -7.68150567	      3.43758720	     23.25997573	     -4.56377980	     -8.97002515	      2.50945292	     13.44302816	      5.86963057	     -3.62744668	      2.63406532	     12.12666512	      4.82265295
      1.26666667	     -0.16886227	     -7.36435492	     -4.44170167	      0.03049894	      1.05351432	      0.30938460	    -18.52149713	     11.58445980	      0.50608157	     -9.37607088	     -0.25662693	     -7.74586079	      3.50650520	     23.09805427	     -4.45783005	     -8.71171710	      2.33698379	     13.51857185	      5.62895390	     -3.57117766	      2.66600692	     11.96753359	      4.82038111
      1.27083333	     -0.14233306	     -7.35447831	     -4.46505664	      0.03671407	      1.05340726	      0.30944687	    -18.57369352	     11.52149152	      0.51770967	     -9.96369849	     -0.38451675	     -7.77122119	      3.52337852	     22.93994091	     -4.44570810	     -8.58207060	      2.07835910	     13.48465251	      5.58384160	     -3.55887752	      2.75084622	     11.90236260	      4.82739452
      1.27500000	     -0.13400126	     -7.22460170	     -4.49901883	      0.04334777	      1.05335004	      0.30938479	    -18.60013590	     11.30685321	      0.35012378	    -10.51460611	     -1.15110657	     -7.76301740	      3.61691847	     22.71220904	     -4.29022574	     -8.28321547	      1.93383494	     13.32511943	      5.08058093	     -3.49517138	      2.74485047	     11.71539229	      4.81396143
      1.27916667	     -0.07312964	     -7.13722888	     -4.49624721	      0.04981713	      1.05335739	      0.30927543	    -18.65114309	     11.14417549	      0.18661702	    -11.13279366	     -1.64006328	     -7.78379815	      3.76183013	     22.44157910	     -4.16781519	     -7.87335548	      1.78021475	     13.01038489	      4.42331604	     -3.40661321	      2.76177382	     11.56592531	      4.77687097
      1.28333333	     -0.03307136	     -7.12914098	     -4.50049299	      0.05606092	      1.05335427	      0.30931922	    -18.66036777	     11.08287335	      0.19991595	    -11.80993527	     -1.76478152	     -7.77987928	      3.78475891	     22.25657831	     -4.15638160	     -7.75000719	      1.50115883	     12.94532372	      4.35509954	     -3.39270109	      2.84692351	     11.48605785	      4.78325682
      1.28750000	      0.02782266	     -6.98972973	     -4.48830559	      0.06272563	      1.05345501	      0.30913544	    -18.67285785	     10.85145695	     -0.08209223	    -12.45553217	     -2.61331185	     -7.58046764	      3.94418038	     21.96948563	     -3.97057634	     -7.48132477	      1.34939891	     12.42886425	      3.58153640	     -3.30441222	      2.88903440	     11.23871562	      4.76147886
      1.29166667	      0.06518010	     -6.87108849	     -4.48592547	      0.06930315	      1.05355012	      0.30892216	    -18.63004117	     10.63625996	     -0.33159170	    -13.17970029	     -3.16040495	     -7.44864355	      4.16942496	     21.69536019	     -3.80922969	     -7.06664415	      1.22944497	     11.89334751	      2.73315456	     -3.18115767	      2.89069482	     11.04801648	      4.70664087
      1.29583333	      0.09382737	     -6.81638661	     -4.54735461	      0.07568410	      1.05369883	      0.30895341	    -18.55804666	     10.48916681	     -0.34625637	    -13.97719195	     -3.30469424	     -7.44946617	      4.19605620	     21.46015589	     -3.76426680	     -6.90586794	      1.02740939	     11.80377645	      2.70562711	     -3.16586206	      2.94743985	     10.98172576	      4.70387833
      1.30000000	      0.20247277	     -6.64331731	     -4.47953182	      0.08235433	      1.05394574	      0.30849779	    -18.54840050	     10.20090228	     -0.73251940	    -14.72643917	     -4.08918868	     -7.18181542	      4.77035646	     21.06381787	     -3.50020392	     -6.16435953	      1.00819531	     10.82942159	      0.97899062	     -2.85947941	      2.86417893	     10.70013538	      4.56055194
      1.30416667	      0.22335760	     -6.49679308	     -4.51859158	      0.08901064	      1.05417234	      0.30838820	    -18.42474695	      9.93770069	     -0.97074351	    -15.54494051	     -4.74906561	     -6.99010118	      4.92252169	     20.82867891	     -3.33491827	     -6.19188558	      0.81925965	     10.42198186	      0.84506092	     -2.78092207	      2.96298224	     10.52311017	      4.55845831
